<mxfile host="Electron" modified="2023-11-10T00:27:43.449Z" agent="Mozilla/5.0 (Windows NT 10.0; Win64; x64) AppleWebKit/537.36 (KHTML, like Gecko) draw.io/21.2.1 Chrome/112.0.5615.87 Electron/24.1.2 Safari/537.36" etag="iIxQ58ud_4XYqDbktU0z" version="21.2.1" type="device">
  <diagram name="PÃ¡gina-1" id="BAVsSbYuj5x4EtEMXslJ">
    <mxGraphModel dx="1900" dy="635" grid="1" gridSize="10" guides="1" tooltips="1" connect="1" arrows="1" fold="1" page="1" pageScale="1" pageWidth="827" pageHeight="1169" math="0" shadow="0">
      <root>
        <mxCell id="0" />
        <mxCell id="1" parent="0" />
        <mxCell id="8mHDug3tUDTgRn8Re_kE-1" value="" style="shape=umlActor;verticalLabelPosition=bottom;verticalAlign=top;html=1;outlineConnect=0;" parent="1" vertex="1">
          <mxGeometry x="-120" y="280" width="30" height="60" as="geometry" />
        </mxCell>
        <mxCell id="8mHDug3tUDTgRn8Re_kE-3" value="Administrar Mesa" style="ellipse;whiteSpace=wrap;html=1;" parent="1" vertex="1">
          <mxGeometry x="110.00000000000011" y="210" width="140" height="70" as="geometry" />
        </mxCell>
        <mxCell id="8mHDug3tUDTgRn8Re_kE-4" value="Extends" style="endArrow=block;endSize=16;endFill=0;html=1;rounded=0;exitX=1;exitY=0.5;exitDx=0;exitDy=0;entryX=0;entryY=0.5;entryDx=0;entryDy=0;" parent="1" source="8mHDug3tUDTgRn8Re_kE-3" target="8mHDug3tUDTgRn8Re_kE-8" edge="1">
          <mxGeometry x="0.0235" y="-7" width="160" relative="1" as="geometry">
            <mxPoint x="240" y="110" as="sourcePoint" />
            <mxPoint x="330" y="80" as="targetPoint" />
            <mxPoint as="offset" />
          </mxGeometry>
        </mxCell>
        <mxCell id="8mHDug3tUDTgRn8Re_kE-6" value="Agregar Mesa" style="ellipse;whiteSpace=wrap;html=1;" parent="1" vertex="1">
          <mxGeometry x="290" y="90" width="140" height="70" as="geometry" />
        </mxCell>
        <mxCell id="8mHDug3tUDTgRn8Re_kE-8" value="Ver Mesa" style="ellipse;whiteSpace=wrap;html=1;" parent="1" vertex="1">
          <mxGeometry x="370" y="200" width="140" height="70" as="geometry" />
        </mxCell>
        <mxCell id="8mHDug3tUDTgRn8Re_kE-9" value="Extends" style="endArrow=block;endSize=16;endFill=0;html=1;rounded=0;exitX=0.5;exitY=0;exitDx=0;exitDy=0;entryX=0;entryY=0.5;entryDx=0;entryDy=0;" parent="1" source="8mHDug3tUDTgRn8Re_kE-3" target="8mHDug3tUDTgRn8Re_kE-6" edge="1">
          <mxGeometry width="160" relative="1" as="geometry">
            <mxPoint x="60" y="100" as="sourcePoint" />
            <mxPoint x="220" y="100" as="targetPoint" />
          </mxGeometry>
        </mxCell>
        <mxCell id="8mHDug3tUDTgRn8Re_kE-10" value="Extends" style="endArrow=block;endSize=16;endFill=0;html=1;rounded=0;exitX=1;exitY=1;exitDx=0;exitDy=0;entryX=0;entryY=0.5;entryDx=0;entryDy=0;" parent="1" source="8mHDug3tUDTgRn8Re_kE-3" target="8mHDug3tUDTgRn8Re_kE-11" edge="1">
          <mxGeometry width="160" relative="1" as="geometry">
            <mxPoint x="254" y="290" as="sourcePoint" />
            <mxPoint x="414" y="290" as="targetPoint" />
          </mxGeometry>
        </mxCell>
        <mxCell id="8mHDug3tUDTgRn8Re_kE-11" value="Eliminar Mesa" style="ellipse;whiteSpace=wrap;html=1;" parent="1" vertex="1">
          <mxGeometry x="370" y="290" width="140" height="70" as="geometry" />
        </mxCell>
        <mxCell id="8mHDug3tUDTgRn8Re_kE-12" value="Crear" style="ellipse;whiteSpace=wrap;html=1;" parent="1" vertex="1">
          <mxGeometry x="520" y="30" width="140" height="70" as="geometry" />
        </mxCell>
        <mxCell id="8mHDug3tUDTgRn8Re_kE-15" value="Limpiar Input" style="ellipse;whiteSpace=wrap;html=1;" parent="1" vertex="1">
          <mxGeometry x="520" y="130" width="140" height="70" as="geometry" />
        </mxCell>
        <mxCell id="8mHDug3tUDTgRn8Re_kE-16" value="" style="endArrow=open;endFill=1;endSize=12;html=1;rounded=0;exitX=1;exitY=0;exitDx=0;exitDy=0;entryX=0;entryY=0.5;entryDx=0;entryDy=0;" parent="1" source="8mHDug3tUDTgRn8Re_kE-6" target="8mHDug3tUDTgRn8Re_kE-12" edge="1">
          <mxGeometry width="160" relative="1" as="geometry">
            <mxPoint x="490" y="120" as="sourcePoint" />
            <mxPoint x="650" y="120" as="targetPoint" />
          </mxGeometry>
        </mxCell>
        <mxCell id="8mHDug3tUDTgRn8Re_kE-17" value="" style="endArrow=open;endFill=1;endSize=12;html=1;rounded=0;exitX=1;exitY=1;exitDx=0;exitDy=0;entryX=0;entryY=0.429;entryDx=0;entryDy=0;entryPerimeter=0;" parent="1" source="8mHDug3tUDTgRn8Re_kE-6" target="8mHDug3tUDTgRn8Re_kE-15" edge="1">
          <mxGeometry width="160" relative="1" as="geometry">
            <mxPoint x="530" y="130" as="sourcePoint" />
            <mxPoint x="690" y="130" as="targetPoint" />
          </mxGeometry>
        </mxCell>
        <mxCell id="8mHDug3tUDTgRn8Re_kE-18" value="Include" style="text;html=1;align=center;verticalAlign=middle;resizable=0;points=[];autosize=1;strokeColor=none;fillColor=none;" parent="1" vertex="1">
          <mxGeometry x="424" y="110" width="60" height="30" as="geometry" />
        </mxCell>
        <mxCell id="8mHDug3tUDTgRn8Re_kE-21" value="" style="endArrow=open;endFill=1;endSize=12;html=1;rounded=0;entryX=0;entryY=0.5;entryDx=0;entryDy=0;" parent="1" source="8mHDug3tUDTgRn8Re_kE-1" target="8mHDug3tUDTgRn8Re_kE-3" edge="1">
          <mxGeometry width="160" relative="1" as="geometry">
            <mxPoint x="140" y="290" as="sourcePoint" />
            <mxPoint x="300" y="290" as="targetPoint" />
          </mxGeometry>
        </mxCell>
        <mxCell id="8mHDug3tUDTgRn8Re_kE-22" value="" style="endArrow=open;endFill=1;endSize=12;html=1;rounded=0;entryX=0;entryY=0.5;entryDx=0;entryDy=0;" parent="1" source="8mHDug3tUDTgRn8Re_kE-1" target="8mHDug3tUDTgRn8Re_kE-23" edge="1">
          <mxGeometry width="160" relative="1" as="geometry">
            <mxPoint x="130" y="390" as="sourcePoint" />
            <mxPoint x="160" y="360" as="targetPoint" />
          </mxGeometry>
        </mxCell>
        <mxCell id="8mHDug3tUDTgRn8Re_kE-23" value="Administrar Producto" style="ellipse;whiteSpace=wrap;html=1;" parent="1" vertex="1">
          <mxGeometry x="110.00000000000011" y="390" width="140" height="70" as="geometry" />
        </mxCell>
        <mxCell id="8mHDug3tUDTgRn8Re_kE-24" value="Extends" style="endArrow=block;endSize=16;endFill=0;html=1;rounded=0;exitX=1;exitY=0.5;exitDx=0;exitDy=0;entryX=0;entryY=0.5;entryDx=0;entryDy=0;" parent="1" source="8mHDug3tUDTgRn8Re_kE-23" target="8mHDug3tUDTgRn8Re_kE-25" edge="1">
          <mxGeometry width="160" relative="1" as="geometry">
            <mxPoint x="340" y="410" as="sourcePoint" />
            <mxPoint x="440" y="410" as="targetPoint" />
          </mxGeometry>
        </mxCell>
        <mxCell id="8mHDug3tUDTgRn8Re_kE-25" value="Guardar Producto" style="ellipse;whiteSpace=wrap;html=1;" parent="1" vertex="1">
          <mxGeometry x="343.5" y="390" width="140" height="70" as="geometry" />
        </mxCell>
        <mxCell id="8mHDug3tUDTgRn8Re_kE-26" value="" style="endArrow=open;endFill=1;endSize=12;html=1;rounded=0;exitX=1;exitY=0.5;exitDx=0;exitDy=0;entryX=0;entryY=0.5;entryDx=0;entryDy=0;" parent="1" source="8mHDug3tUDTgRn8Re_kE-25" target="8mHDug3tUDTgRn8Re_kE-27" edge="1">
          <mxGeometry width="160" relative="1" as="geometry">
            <mxPoint x="610" y="410" as="sourcePoint" />
            <mxPoint x="700" y="405" as="targetPoint" />
          </mxGeometry>
        </mxCell>
        <mxCell id="8mHDug3tUDTgRn8Re_kE-27" value="Ingresar Nombre, Descripcion, Precio y Costo&lt;br&gt;Marcar Elaboracion&lt;br&gt;" style="ellipse;whiteSpace=wrap;html=1;" parent="1" vertex="1">
          <mxGeometry x="570" y="385" width="140" height="80" as="geometry" />
        </mxCell>
        <mxCell id="8mHDug3tUDTgRn8Re_kE-28" value="Include" style="text;html=1;align=center;verticalAlign=middle;resizable=0;points=[];autosize=1;strokeColor=none;fillColor=none;" parent="1" vertex="1">
          <mxGeometry x="484" y="390" width="60" height="30" as="geometry" />
        </mxCell>
        <mxCell id="15enL0nu7c8-bWv4miCj-1" value="Extends" style="endArrow=block;endSize=16;endFill=0;html=1;rounded=0;exitX=1;exitY=1;exitDx=0;exitDy=0;entryX=0;entryY=0.5;entryDx=0;entryDy=0;" parent="1" source="8mHDug3tUDTgRn8Re_kE-23" target="15enL0nu7c8-bWv4miCj-2" edge="1">
          <mxGeometry width="160" relative="1" as="geometry">
            <mxPoint x="290" y="500" as="sourcePoint" />
            <mxPoint x="400" y="480" as="targetPoint" />
          </mxGeometry>
        </mxCell>
        <mxCell id="15enL0nu7c8-bWv4miCj-2" value="Eliminar Producto" style="ellipse;whiteSpace=wrap;html=1;" parent="1" vertex="1">
          <mxGeometry x="344" y="470" width="140" height="70" as="geometry" />
        </mxCell>
        <mxCell id="15enL0nu7c8-bWv4miCj-3" value="" style="endArrow=open;endFill=1;endSize=12;html=1;rounded=0;exitX=1;exitY=0.5;exitDx=0;exitDy=0;entryX=0;entryY=0.5;entryDx=0;entryDy=0;" parent="1" source="15enL0nu7c8-bWv4miCj-2" target="15enL0nu7c8-bWv4miCj-4" edge="1">
          <mxGeometry width="160" relative="1" as="geometry">
            <mxPoint x="610" y="500" as="sourcePoint" />
            <mxPoint x="680" y="505" as="targetPoint" />
          </mxGeometry>
        </mxCell>
        <mxCell id="15enL0nu7c8-bWv4miCj-4" value="Seleccionar Producto" style="ellipse;whiteSpace=wrap;html=1;" parent="1" vertex="1">
          <mxGeometry x="570" y="470" width="140" height="70" as="geometry" />
        </mxCell>
        <mxCell id="15enL0nu7c8-bWv4miCj-5" value="Include" style="text;html=1;align=center;verticalAlign=middle;resizable=0;points=[];autosize=1;strokeColor=none;fillColor=none;" parent="1" vertex="1">
          <mxGeometry x="483.5" y="470" width="60" height="30" as="geometry" />
        </mxCell>
        <mxCell id="15enL0nu7c8-bWv4miCj-6" value="Extends" style="endArrow=block;endSize=16;endFill=0;html=1;rounded=0;exitX=0.5;exitY=1;exitDx=0;exitDy=0;entryX=0;entryY=0.5;entryDx=0;entryDy=0;" parent="1" source="8mHDug3tUDTgRn8Re_kE-23" target="80g5SrDX1YbYkke3lMYD-34" edge="1">
          <mxGeometry width="160" relative="1" as="geometry">
            <mxPoint x="230" y="570" as="sourcePoint" />
            <mxPoint x="270" y="530" as="targetPoint" />
          </mxGeometry>
        </mxCell>
        <mxCell id="15enL0nu7c8-bWv4miCj-10" value="Limpiar Inputs" style="ellipse;whiteSpace=wrap;html=1;" parent="1" vertex="1">
          <mxGeometry x="20" y="520" width="140" height="70" as="geometry" />
        </mxCell>
        <mxCell id="80g5SrDX1YbYkke3lMYD-1" value="" style="endArrow=open;endFill=1;endSize=12;html=1;rounded=0;exitX=1;exitY=0.5;exitDx=0;exitDy=0;entryX=0;entryY=0.5;entryDx=0;entryDy=0;" parent="1" source="8mHDug3tUDTgRn8Re_kE-8" target="80g5SrDX1YbYkke3lMYD-3" edge="1">
          <mxGeometry width="160" relative="1" as="geometry">
            <mxPoint x="540" y="230" as="sourcePoint" />
            <mxPoint x="630" y="235" as="targetPoint" />
          </mxGeometry>
        </mxCell>
        <mxCell id="80g5SrDX1YbYkke3lMYD-2" value="Include" style="text;html=1;align=center;verticalAlign=middle;resizable=0;points=[];autosize=1;strokeColor=none;fillColor=none;" parent="1" vertex="1">
          <mxGeometry x="510" y="230" width="60" height="30" as="geometry" />
        </mxCell>
        <mxCell id="80g5SrDX1YbYkke3lMYD-3" value="Seleccionar Mesa" style="ellipse;whiteSpace=wrap;html=1;" parent="1" vertex="1">
          <mxGeometry x="640" y="200" width="140" height="70" as="geometry" />
        </mxCell>
        <mxCell id="80g5SrDX1YbYkke3lMYD-4" value="" style="endArrow=open;endFill=1;endSize=12;html=1;rounded=0;exitX=1;exitY=0.5;exitDx=0;exitDy=0;entryX=0;entryY=0.5;entryDx=0;entryDy=0;" parent="1" source="8mHDug3tUDTgRn8Re_kE-11" target="80g5SrDX1YbYkke3lMYD-6" edge="1">
          <mxGeometry width="160" relative="1" as="geometry">
            <mxPoint x="520" y="325" as="sourcePoint" />
            <mxPoint x="640" y="325" as="targetPoint" />
          </mxGeometry>
        </mxCell>
        <mxCell id="80g5SrDX1YbYkke3lMYD-5" value="Include" style="text;html=1;align=center;verticalAlign=middle;resizable=0;points=[];autosize=1;strokeColor=none;fillColor=none;" parent="1" vertex="1">
          <mxGeometry x="510" y="320" width="60" height="30" as="geometry" />
        </mxCell>
        <mxCell id="80g5SrDX1YbYkke3lMYD-6" value="Seleccionar Mesa" style="ellipse;whiteSpace=wrap;html=1;" parent="1" vertex="1">
          <mxGeometry x="640" y="290" width="140" height="70" as="geometry" />
        </mxCell>
        <mxCell id="80g5SrDX1YbYkke3lMYD-7" value="" style="endArrow=open;endFill=1;endSize=12;html=1;rounded=0;entryX=0.5;entryY=0;entryDx=0;entryDy=0;" parent="1" source="8mHDug3tUDTgRn8Re_kE-1" target="80g5SrDX1YbYkke3lMYD-8" edge="1">
          <mxGeometry width="160" relative="1" as="geometry">
            <mxPoint x="70" y="610" as="sourcePoint" />
            <mxPoint x="70" y="520" as="targetPoint" />
          </mxGeometry>
        </mxCell>
        <mxCell id="80g5SrDX1YbYkke3lMYD-8" value="Administrar Pedido" style="ellipse;whiteSpace=wrap;html=1;" parent="1" vertex="1">
          <mxGeometry x="-175" y="515" width="140" height="70" as="geometry" />
        </mxCell>
        <mxCell id="80g5SrDX1YbYkke3lMYD-9" value="" style="endArrow=open;endFill=1;endSize=12;html=1;rounded=0;exitX=0.5;exitY=1;exitDx=0;exitDy=0;entryX=0.5;entryY=0;entryDx=0;entryDy=0;" parent="1" source="80g5SrDX1YbYkke3lMYD-8" target="80g5SrDX1YbYkke3lMYD-11" edge="1">
          <mxGeometry width="160" relative="1" as="geometry">
            <mxPoint x="60" y="650" as="sourcePoint" />
            <mxPoint x="70" y="670" as="targetPoint" />
          </mxGeometry>
        </mxCell>
        <mxCell id="80g5SrDX1YbYkke3lMYD-10" value="Include" style="text;html=1;align=center;verticalAlign=middle;resizable=0;points=[];autosize=1;strokeColor=none;fillColor=none;" parent="1" vertex="1">
          <mxGeometry x="-100" y="630" width="60" height="30" as="geometry" />
        </mxCell>
        <mxCell id="80g5SrDX1YbYkke3lMYD-11" value="Seleccionar Mesa" style="ellipse;whiteSpace=wrap;html=1;" parent="1" vertex="1">
          <mxGeometry x="-175" y="680" width="140" height="70" as="geometry" />
        </mxCell>
        <mxCell id="80g5SrDX1YbYkke3lMYD-12" value="Extends" style="endArrow=block;endSize=16;endFill=0;html=1;rounded=0;exitX=1;exitY=0.5;exitDx=0;exitDy=0;entryX=0;entryY=0.5;entryDx=0;entryDy=0;" parent="1" source="80g5SrDX1YbYkke3lMYD-11" target="80g5SrDX1YbYkke3lMYD-13" edge="1">
          <mxGeometry x="-0.0769" width="160" relative="1" as="geometry">
            <mxPoint x="206" y="710" as="sourcePoint" />
            <mxPoint x="270" y="725" as="targetPoint" />
            <Array as="points" />
            <mxPoint as="offset" />
          </mxGeometry>
        </mxCell>
        <mxCell id="80g5SrDX1YbYkke3lMYD-13" value="Ver Pedido" style="ellipse;whiteSpace=wrap;html=1;" parent="1" vertex="1">
          <mxGeometry x="120" y="680" width="140" height="70" as="geometry" />
        </mxCell>
        <mxCell id="80g5SrDX1YbYkke3lMYD-14" value="Extends" style="endArrow=block;endSize=16;endFill=0;html=1;rounded=0;exitX=1;exitY=0.5;exitDx=0;exitDy=0;entryX=0;entryY=0.5;entryDx=0;entryDy=0;" parent="1" source="80g5SrDX1YbYkke3lMYD-13" target="80g5SrDX1YbYkke3lMYD-15" edge="1">
          <mxGeometry x="-0.0769" width="160" relative="1" as="geometry">
            <mxPoint x="484" y="724.5" as="sourcePoint" />
            <mxPoint x="560" y="725" as="targetPoint" />
            <Array as="points" />
            <mxPoint as="offset" />
          </mxGeometry>
        </mxCell>
        <mxCell id="80g5SrDX1YbYkke3lMYD-15" value="Modificar Pedido" style="ellipse;whiteSpace=wrap;html=1;" parent="1" vertex="1">
          <mxGeometry x="360" y="680" width="140" height="70" as="geometry" />
        </mxCell>
        <mxCell id="80g5SrDX1YbYkke3lMYD-16" value="Include" style="text;html=1;align=center;verticalAlign=middle;resizable=0;points=[];autosize=1;strokeColor=none;fillColor=none;" parent="1" vertex="1">
          <mxGeometry x="400" y="780" width="60" height="30" as="geometry" />
        </mxCell>
        <mxCell id="80g5SrDX1YbYkke3lMYD-17" value="" style="endArrow=open;endFill=1;endSize=12;html=1;rounded=0;exitX=0.5;exitY=1;exitDx=0;exitDy=0;entryX=0.5;entryY=0;entryDx=0;entryDy=0;" parent="1" source="80g5SrDX1YbYkke3lMYD-15" target="80g5SrDX1YbYkke3lMYD-18" edge="1">
          <mxGeometry width="160" relative="1" as="geometry">
            <mxPoint x="570" y="850" as="sourcePoint" />
            <mxPoint x="650" y="800" as="targetPoint" />
          </mxGeometry>
        </mxCell>
        <mxCell id="80g5SrDX1YbYkke3lMYD-18" value="Agregar Item" style="ellipse;whiteSpace=wrap;html=1;" parent="1" vertex="1">
          <mxGeometry x="450" y="830" width="140" height="70" as="geometry" />
        </mxCell>
        <mxCell id="80g5SrDX1YbYkke3lMYD-19" value="" style="endArrow=open;endFill=1;endSize=12;html=1;rounded=0;exitX=0.5;exitY=1;exitDx=0;exitDy=0;entryX=0.5;entryY=0;entryDx=0;entryDy=0;" parent="1" source="80g5SrDX1YbYkke3lMYD-15" target="80g5SrDX1YbYkke3lMYD-20" edge="1">
          <mxGeometry width="160" relative="1" as="geometry">
            <mxPoint x="560" y="750" as="sourcePoint" />
            <mxPoint x="530" y="800" as="targetPoint" />
          </mxGeometry>
        </mxCell>
        <mxCell id="80g5SrDX1YbYkke3lMYD-20" value="Eliminar Item" style="ellipse;whiteSpace=wrap;html=1;" parent="1" vertex="1">
          <mxGeometry x="274" y="830" width="140" height="70" as="geometry" />
        </mxCell>
        <mxCell id="80g5SrDX1YbYkke3lMYD-23" value="Ver Productos" style="ellipse;whiteSpace=wrap;html=1;" parent="1" vertex="1">
          <mxGeometry x="120" y="830" width="140" height="70" as="geometry" />
        </mxCell>
        <mxCell id="80g5SrDX1YbYkke3lMYD-33" value="Extends" style="endArrow=block;endSize=16;endFill=0;html=1;rounded=0;exitX=0;exitY=1;exitDx=0;exitDy=0;" parent="1" source="8mHDug3tUDTgRn8Re_kE-23" target="15enL0nu7c8-bWv4miCj-10" edge="1">
          <mxGeometry width="160" relative="1" as="geometry">
            <mxPoint x="26" y="510" as="sourcePoint" />
            <mxPoint x="160" y="520" as="targetPoint" />
          </mxGeometry>
        </mxCell>
        <mxCell id="80g5SrDX1YbYkke3lMYD-34" value="Administrar Stock" style="ellipse;whiteSpace=wrap;html=1;" parent="1" vertex="1">
          <mxGeometry x="274" y="560" width="140" height="70" as="geometry" />
        </mxCell>
        <mxCell id="80g5SrDX1YbYkke3lMYD-35" value="Include" style="text;html=1;align=center;verticalAlign=middle;resizable=0;points=[];autosize=1;strokeColor=none;fillColor=none;" parent="1" vertex="1">
          <mxGeometry x="414" y="570" width="60" height="30" as="geometry" />
        </mxCell>
        <mxCell id="80g5SrDX1YbYkke3lMYD-36" value="" style="endArrow=open;endFill=1;endSize=12;html=1;rounded=0;exitX=1;exitY=0.5;exitDx=0;exitDy=0;entryX=0;entryY=0.5;entryDx=0;entryDy=0;" parent="1" source="80g5SrDX1YbYkke3lMYD-34" target="80g5SrDX1YbYkke3lMYD-37" edge="1">
          <mxGeometry width="160" relative="1" as="geometry">
            <mxPoint x="477" y="620" as="sourcePoint" />
            <mxPoint x="563" y="595" as="targetPoint" />
          </mxGeometry>
        </mxCell>
        <mxCell id="80g5SrDX1YbYkke3lMYD-37" value="Controlar Stock Producto No Elaborado" style="ellipse;whiteSpace=wrap;html=1;" parent="1" vertex="1">
          <mxGeometry x="520" y="560" width="140" height="70" as="geometry" />
        </mxCell>
        <mxCell id="80g5SrDX1YbYkke3lMYD-39" value="&lt;h1&gt;SISTEMA DE TITO RESTO-BAR&lt;/h1&gt;" style="text;align=center;fontStyle=1;verticalAlign=middle;spacingLeft=3;spacingRight=3;strokeColor=none;rotatable=0;points=[[0,0.5],[1,0.5]];portConstraint=eastwest;html=1;" parent="1" vertex="1">
          <mxGeometry x="-70" y="74" width="80" height="26" as="geometry" />
        </mxCell>
        <mxCell id="80g5SrDX1YbYkke3lMYD-41" value="&lt;h2&gt;MUISE Y SAINT MARTIN&lt;/h2&gt;" style="text;align=center;fontStyle=1;verticalAlign=middle;spacingLeft=3;spacingRight=3;strokeColor=none;rotatable=0;points=[[0,0.5],[1,0.5]];portConstraint=eastwest;html=1;" parent="1" vertex="1">
          <mxGeometry x="-60" y="120" width="80" height="26" as="geometry" />
        </mxCell>
        <mxCell id="ZDy62RlcExlgdnszOQyW-2" value="Extends" style="endArrow=block;endSize=16;endFill=0;html=1;rounded=0;exitX=0.5;exitY=1;exitDx=0;exitDy=0;entryX=0.5;entryY=0;entryDx=0;entryDy=0;" edge="1" parent="1" source="80g5SrDX1YbYkke3lMYD-13" target="80g5SrDX1YbYkke3lMYD-23">
          <mxGeometry x="-0.0769" width="160" relative="1" as="geometry">
            <mxPoint x="-10" y="794.38" as="sourcePoint" />
            <mxPoint x="145" y="794.38" as="targetPoint" />
            <Array as="points" />
            <mxPoint as="offset" />
          </mxGeometry>
        </mxCell>
        <mxCell id="ZDy62RlcExlgdnszOQyW-3" value="Extends" style="endArrow=block;endSize=16;endFill=0;html=1;rounded=0;exitX=0;exitY=1;exitDx=0;exitDy=0;entryX=1;entryY=0;entryDx=0;entryDy=0;" edge="1" parent="1" source="80g5SrDX1YbYkke3lMYD-13" target="ZDy62RlcExlgdnszOQyW-4">
          <mxGeometry x="-0.0769" width="160" relative="1" as="geometry">
            <mxPoint x="-20" y="808.75" as="sourcePoint" />
            <mxPoint x="90" y="800" as="targetPoint" />
            <Array as="points" />
            <mxPoint as="offset" />
          </mxGeometry>
        </mxCell>
        <mxCell id="ZDy62RlcExlgdnszOQyW-4" value="Aplicar Descuento" style="ellipse;whiteSpace=wrap;html=1;" vertex="1" parent="1">
          <mxGeometry x="-50" y="830" width="140" height="70" as="geometry" />
        </mxCell>
      </root>
    </mxGraphModel>
  </diagram>
</mxfile>
